<svg height="512" width="512" xmlns="http://www.w3.org/2000/svg"><path d="M424.339 501.422L92 499.468c-8.284 0-15-6.716-15-15L74.54 62.829c0-8.284 6.716-15 15-15l2.8-2.052h332.322c8.284 0 15 6.716 15 15V484.5l-2.992 4.261c0 8.285-4.046 12.661-12.331 12.661z" fill="#b78c7a"/><path d="M337.06 45.78v53.41H174.94V45.78h16.996l48.44 15.092 79.688-15.092z" fill="#ab7b64"/><path d="M310.064 26.66h-33.632a2 2 0 01-1.982-1.797C273.385 15.1 265.126 7.5 255.08 7.5s-5.86 5.37-6.925 15.133c-.111 1.019-13.402 4.027-14.427 4.027h-31.792c-5.523 0-5.817 5.313-5.817 10.836l-4.183 44.696h128.128V36.66c0-5.523-4.477-10-10-10z" fill="#ffe07d"/><path d="M211.94 67.19a5 5 0 01-5-5V36.66c0-5.52 4.47-10 10-10h-15c-5.53 0-10 4.48-10 10v45.53l60.656 13.434L320.06 82.19v-15zM262.58 9c-6.42 2.67-11.09 8.68-11.87 15.86-.11 1.02-.96 1.8-1.98 1.8h-15c1.02 0 1.87-.78 1.98-1.8 1.06-9.76 9.32-17.36 19.37-17.36 2.66 0 5.19.53 7.5 1.5z" fill="#ffd064"/><path d="M439.66 484.5v5c0 8.28-6.71 15-15 15H87.34c-8.29 0-15-6.72-15-15V60.78c0-8.29 6.71-15 15-15h5V477.5c0 3.87 3.13 7 7 7z" fill="#ab7b64"/><path d="M120.908 465.968l200.367-3.078a9.998 9.998 0 007.006-2.865l68.514-68.947a9.999 9.999 0 002.994-7.135l4.018-8.843V92.191c0-5.523-4.477-10-10-10H123.19l-2.282 3.873c-5.523 0-10 4.477-10 10v359.904c0 5.523 4.477 10 10 10z" fill="#f5fcff"/><path d="M339.96 453.8l-12.36 12.14a9.988 9.988 0 01-7.01 2.86h-202.4c-5.52 0-10-4.47-10-10V92.19c0-5.523 4.477-10 10-10h5V446.8a7 7 0 007 7z" fill="#e6f7fe"/><path d="M308.778 401.1v67.7h11.81c1.31 0 2.595-.255 3.786-.74s16.351-34.856 17.286-35.776l27.776-32.587c.874-.856 32.946-7.512 33.449-8.599a9.975 9.975 0 00.923-4.189V375.1h-69.03c-14.34 0-26 11.66-26 26z" fill="#e6f7fe"/><path d="M324.778 401.1v66.79a9.893 9.893 0 002.82-1.95l73.21-71.9c.87-.86 1.58-1.85 2.08-2.94h-68.11c-5.53 0-10 4.48-10 10z" fill="#d3effd"/><path d="M353.029 153.312l-193.554-1.321a5 5 0 01-5-5l-2.49-21.422a5 5 0 015-5l6.236-1.994h193.716a5 5 0 015 5v17.616l-3.908 7.122a5 5 0 01-5 4.999z" fill="#bed9fd"/><path d="M361.94 141.19v10a5 5 0 01-5 5H153.22a5 5 0 01-5-5v-27.62a5 5 0 015-5h10v17.62a5 5 0 005 5z" fill="#9ec8fc"/><path d="M213.518 397.619c0-17.862-14.48-32.342-32.342-32.342-3.425 0-6.725.532-9.823 1.519-13.06 4.158-16.879 15.272-16.879 29.709 0 17.862 8.84 27.501 26.702 27.501 14.438 0 26.666-3.504 30.824-16.564a32.335 32.335 0 001.518-9.823z" fill="#d5717f"/><path d="M211.995 407.44c-4.15 13.06-16.38 22.52-30.82 22.52-17.86 0-32.34-14.48-32.34-32.34 0-14.44 9.46-26.67 22.52-30.82-.99 3.1-1.52 6.4-1.52 9.82 0 17.86 14.48 32.34 32.34 32.34 3.42 0 6.72-.53 9.82-1.52z" fill="#cd5668"/><g><path d="M424.661 38.276h-97.098V36.66c0-9.649-7.851-17.5-17.5-17.5h-29.148C277.547 8.084 267.242 0 255.08 0s-22.467 8.084-25.835 19.16h-27.308c-9.649 0-17.5 7.851-17.5 17.5v1.617H87.339c-12.406 0-22.5 10.093-22.5 22.5V489.5c0 12.407 10.094 22.5 22.5 22.5H113c4.143 0 7.5-3.358 7.5-7.5s-3.357-7.5-7.5-7.5H87.339c-4.136 0-7.5-3.365-7.5-7.5V60.776c0-4.135 3.364-7.5 7.5-7.5h97.098v21.415h-66.245c-9.649 0-17.5 7.851-17.5 17.5v238.745c0 4.142 3.357 7.5 7.5 7.5s7.5-3.358 7.5-7.5V92.191c0-1.378 1.121-2.5 2.5-2.5h222.659c4.143 0 7.5-3.358 7.5-7.5s-3.357-7.5-7.5-7.5h-13.287V53.276h97.098c4.136 0 7.5 3.365 7.5 7.5V489.5c0 4.135-3.364 7.5-7.5 7.5H147.979c-4.143 0-7.5 3.358-7.5 7.5s3.357 7.5 7.5 7.5h276.683c12.406 0 22.5-10.093 22.5-22.5V60.776c-.001-12.406-10.095-22.5-22.501-22.5zM255.08 15c6.617 0 12 5.383 12 12s-5.383 12-12 12-12-5.383-12-12 5.383-12 12-12zm-55.643 59.691V36.66c0-1.378 1.121-2.5 2.5-2.5h27.115C232.197 45.583 242.671 54 255.08 54s22.883-8.417 26.029-19.84h28.954c1.379 0 2.5 1.122 2.5 2.5v38.032H199.437z"/><path d="M286.957 126.075c4.143 0 7.5-3.358 7.5-7.5s-3.357-7.5-7.5-7.5H153.224c-6.893 0-12.5 5.607-12.5 12.5v27.611c0 6.893 5.607 12.5 12.5 12.5h203.713c6.893 0 12.5-5.607 12.5-12.5v-27.611c0-6.893-5.607-12.5-12.5-12.5h-34.915c-4.143 0-7.5 3.358-7.5 7.5s3.357 7.5 7.5 7.5h32.415v22.611H155.724v-22.611zM148.224 224.589h12.521c4.143 0 7.5-3.358 7.5-7.5s-3.357-7.5-7.5-7.5h-12.521c-4.143 0-7.5 3.358-7.5 7.5s3.357 7.5 7.5 7.5zM361.937 209.589H206.702c-4.143 0-7.5 3.358-7.5 7.5s3.357 7.5 7.5 7.5h155.234c4.143 0 7.5-3.358 7.5-7.5s-3.357-7.5-7.499-7.5zM148.224 259.713h12.521c4.143 0 7.5-3.358 7.5-7.5s-3.357-7.5-7.5-7.5h-12.521c-4.143 0-7.5 3.358-7.5 7.5s3.357 7.5 7.5 7.5zM206.702 259.713h45.191c4.143 0 7.5-3.358 7.5-7.5s-3.357-7.5-7.5-7.5h-45.191a7.5 7.5 0 000 15zM361.937 244.713h-68.682c-4.143 0-7.5 3.358-7.5 7.5s3.357 7.5 7.5 7.5h68.682a7.5 7.5 0 000-15zM148.224 294.836h12.521c4.143 0 7.5-3.358 7.5-7.5s-3.357-7.5-7.5-7.5h-12.521c-4.143 0-7.5 3.358-7.5 7.5s3.357 7.5 7.5 7.5zM369.437 287.336a7.5 7.5 0 00-7.5-7.5H206.702c-4.143 0-7.5 3.358-7.5 7.5s3.357 7.5 7.5 7.5h155.234a7.5 7.5 0 007.501-7.5zM148.224 330.407h12.521c4.143 0 7.5-3.358 7.5-7.5s-3.357-7.5-7.5-7.5h-12.521c-4.143 0-7.5 3.358-7.5 7.5s3.357 7.5 7.5 7.5zM352.841 322.907a7.5 7.5 0 00-7.5-7.5H206.702c-4.143 0-7.5 3.358-7.5 7.5s3.357 7.5 7.5 7.5h138.639a7.5 7.5 0 007.5-7.5z"/><path d="M108.191 358.479a7.5 7.5 0 00-7.5 7.5v92.826c0 9.649 7.851 17.5 17.5 17.5h202.4c4.614 0 8.969-1.78 12.262-5.013l73.216-71.895a17.61 17.61 0 005.239-12.487V92.191c0-9.649-7.851-17.5-17.5-17.5h-17.915c-4.143 0-7.5 3.358-7.5 7.5s3.357 7.5 7.5 7.5h17.915c1.379 0 2.5 1.122 2.5 2.5v291.413h-61.532c-9.649 0-17.5 7.851-17.5 17.5v60.2H118.191a2.503 2.503 0 01-2.5-2.5v-92.826a7.499 7.499 0 00-7.5-7.499zm226.585 40.125h50.69l-53.19 52.23v-49.73c0-1.378 1.121-2.5 2.5-2.5z"/><path d="M141.337 397.619c0 21.969 17.873 39.842 39.842 39.842 21.97 0 39.843-17.873 39.843-39.842s-17.873-39.843-39.843-39.843c-21.969 0-39.842 17.874-39.842 39.843zm64.684 0c0 13.698-11.145 24.842-24.843 24.842s-24.842-11.144-24.842-24.842 11.144-24.843 24.842-24.843 24.843 11.145 24.843 24.843z"/></g></svg>